<?xml version="1.0" encoding="UTF-8" standalone="no"?>
<!-- Created with Inkscape (http://www.inkscape.org/) -->

<svg
   xmlns:dc="http://purl.org/dc/elements/1.1/"
   xmlns:cc="http://creativecommons.org/ns#"
   xmlns:rdf="http://www.w3.org/1999/02/22-rdf-syntax-ns#"
   xmlns:svg="http://www.w3.org/2000/svg"
   xmlns="http://www.w3.org/2000/svg"
   xmlns:xlink="http://www.w3.org/1999/xlink"
   xmlns:sodipodi="http://sodipodi.sourceforge.net/DTD/sodipodi-0.dtd"
   xmlns:inkscape="http://www.inkscape.org/namespaces/inkscape"
   width="7680px"
   height="4320px"
   viewBox="0 0 7680 4320"
   version="1.1"
   id="SVGRoot"
   inkscape:version="0.92.4 (5da689c313, 2019-01-14)"
   sodipodi:docname="KDE Wallpaper entry.svg"
   inkscape:export-filename="C:\Users\Priya\Desktop\KDE Wallpaper entry.png"
   inkscape:export-xdpi="96"
   inkscape:export-ydpi="96">
  <defs
     id="defs815">
    <linearGradient
       inkscape:collect="always"
       id="linearGradient914">
      <stop
         style="stop-color:#aadbd8;stop-opacity:1;"
         offset="0"
         id="stop910" />
      <stop
         style="stop-color:#ffffff;stop-opacity:1"
         offset="1"
         id="stop912" />
    </linearGradient>
    <linearGradient
       inkscape:collect="always"
       xlink:href="#linearGradient914"
       id="linearGradient918"
       gradientUnits="userSpaceOnUse"
       x1="275"
       y1="205.78024"
       x2="7123.75"
       y2="212.03024" />
  </defs>
  <sodipodi:namedview
     id="base"
     pagecolor="#ffffff"
     bordercolor="#666666"
     borderopacity="1.0"
     inkscape:pageopacity="0.0"
     inkscape:pageshadow="2"
     inkscape:zoom="0.11313708"
     inkscape:cx="3171.0033"
     inkscape:cy="2305.2289"
     inkscape:document-units="px"
     inkscape:current-layer="layer1"
     showgrid="false"
     inkscape:window-width="1920"
     inkscape:window-height="986"
     inkscape:window-x="-11"
     inkscape:window-y="-11"
     inkscape:window-maximized="1"
     inkscape:snap-page="true" />
  <metadata
     id="metadata818">
    <rdf:RDF>
      <cc:Work
         rdf:about="">
        <dc:format>image/svg+xml</dc:format>
        <dc:type
           rdf:resource="http://purl.org/dc/dcmitype/StillImage" />
        <dc:title />
      </cc:Work>
    </rdf:RDF>
  </metadata>
  <g
     inkscape:label="Layer 1"
     inkscape:groupmode="layer"
     id="layer1">
    <path
       style="fill:#878787;fill-opacity:1;stroke:none;stroke-width:2.84619689px;stroke-linecap:butt;stroke-linejoin:miter;stroke-opacity:1"
       d="M 0,1789.4527 891.4287,1442.2741 1680,1527.14 l 685.7142,-15.4302 917.1429,-100.2962 205.7142,115.7264 -68.5713,262.3127 377.1429,30.8604 342.8571,162.0168 -1997.1429,833.2288 101.6064,328.6545 481.2507,157.396 798.1017,-205.4874 1103.8188,245.7564 -521.9202,160.3232 -111.429,339.4636 L 4191.4287,4320 H 0 Z"
       id="path1381"
       inkscape:connector-curvature="0" />
    <path
       style="fill:#cacaca;fill-opacity:1;stroke:none;stroke-width:2.84619689px;stroke-linecap:butt;stroke-linejoin:miter;stroke-opacity:1"
       d="M 891.4287,1442.2741 1260,1689.1567 1380,1889.7489 942.8571,2190.6372 240,2352.6539 0,2337.2237 v -547.771 z"
       id="path1385"
       inkscape:connector-curvature="0" />
    <path
       style="fill:#f0e4e4;fill-opacity:1;stroke:none;stroke-width:2.84619689px;stroke-linecap:butt;stroke-linejoin:miter;stroke-opacity:1"
       d="M 1380,1889.7489 968.5713,4320 C 968.5713,4320 0,4320 0,4320 V 2337.2237 l 240,15.4302 702.8571,-162.0167 z"
       id="path1387"
       inkscape:connector-curvature="0" />
    <path
       style="fill:#c6aeae;fill-opacity:1;stroke:none;stroke-width:2.84619689px;stroke-linecap:butt;stroke-linejoin:miter;stroke-opacity:1"
       d="M 0,3047.0113 540,2838.7041 1154.5002,3221.7444 968.5713,4320 H 0 Z"
       id="path1389"
       inkscape:connector-curvature="0" />
    <path
       style="fill:#a6bdbe;fill-opacity:1;stroke:none;stroke-width:2.84619689px;stroke-linecap:butt;stroke-linejoin:miter;stroke-opacity:1"
       d="M 3420,1789.4527 3120,2090.341 3468.6633,2262.4184 4140,1982.3299 3797.1429,1820.3131 Z"
       id="path1391"
       inkscape:connector-curvature="0" />
    <path
       style="fill:#c9fffc;fill-opacity:1;stroke:none;stroke-width:2.84619689px;stroke-linecap:butt;stroke-linejoin:miter;stroke-opacity:1"
       d="M 7680,1496.2796 4217.1429,1419.1288 3488.5713,1527.14 3420,1789.4527 l 377.1429,30.8604 342.8571,162.0168 -1157.1429,455.19 -840,378.0388 101.6064,328.6545 481.2507,157.396 798.1017,-205.4874 1103.8188,245.7564 -521.9202,160.3232 -111.429,339.4636 L 4191.4287,4320 H 7680 Z"
       id="path1373"
       inkscape:connector-curvature="0"
       sodipodi:nodetypes="ccccccccccccccccc" />
    <path
       style="fill:#0eaa51;fill-opacity:1;stroke:none;stroke-width:2.84619689px;stroke-linecap:butt;stroke-linejoin:miter;stroke-opacity:1"
       d="M 0,1789.4527 891.4287,1442.2741 1680,1527.14 2365.7142,1511.7098 3282.8571,1411.4136 3488.5713,1527.14 4217.1429,1419.1288 7680,1496.2796 V 763.34667 L 6780,539.60938 6188.5713,269.58148 5511.4287,431.59822 3882.8571,632.19034 1955.9349,730.548 1611.4287,987.08421 934.2858,740.2015 437.1429,308.15686 0,539.60938 Z"
       id="path1379"
       inkscape:connector-curvature="0"
       sodipodi:nodetypes="ccccccccccccccccccc" />
    <path
       style="fill:#00cf4b;fill-opacity:1;stroke:none;stroke-width:2.84619689px;stroke-linecap:butt;stroke-linejoin:miter;stroke-opacity:1"
       d="M 744.4536,575.22687 801.4287,890.64565 475.7142,1125.9558 0,1083.5228 V 539.60938 L 437.1429,308.15686 Z"
       id="path828"
       inkscape:connector-curvature="0" />
    <path
       style="fill:#08b848;fill-opacity:1;stroke:none;stroke-width:2.84619689px;stroke-linecap:butt;stroke-linejoin:miter;stroke-opacity:1"
       d="M 475.7142,1125.9558 891.4287,1442.2741 1680,1527.14 l 214.2858,-435.9022 -282.8571,-104.15359 -810,-96.43856 z"
       id="path847"
       inkscape:connector-curvature="0" />
    <path
       style="fill:#52c97d;fill-opacity:1;stroke:none;stroke-width:2.84619689px;stroke-linecap:butt;stroke-linejoin:miter;stroke-opacity:1"
       d="M 475.7142,1125.9558 0,1083.5228 v 705.9299 l 891.4287,-347.1786 z"
       id="path849"
       inkscape:connector-curvature="0" />
    <path
       style="fill:#00f85c;fill-opacity:1;stroke:none;stroke-width:2.84619689px;stroke-linecap:butt;stroke-linejoin:miter;stroke-opacity:1"
       d="M 5511.4287,431.59822 5327.5446,703.07807 5624.5293,1144.9644 6503.3622,937.65967 6780,539.60938 6188.5713,269.58148 Z"
       id="path851"
       inkscape:connector-curvature="0" />
    <path
       style="fill:#35ff6b;fill-opacity:1;stroke:none;stroke-width:2.84619689px;stroke-linecap:butt;stroke-linejoin:miter;stroke-opacity:1"
       d="M 6503.3622,937.65967 6866.7054,1478.1599 7680,1496.2796 V 763.34667 L 6780,539.60938 Z"
       id="path853"
       inkscape:connector-curvature="0" />
    <path
       style="fill:#f2f8c0;fill-opacity:1;stroke:none;stroke-width:2.84619689px;stroke-linecap:butt;stroke-linejoin:miter;stroke-opacity:1"
       d="m 5624.5293,1144.9644 -213.3519,300.767 1455.528,32.4285 -363.3432,-540.50023 z"
       id="path855"
       inkscape:connector-curvature="0" />
    <path
       style="fill:#edeeae;fill-opacity:1;stroke:none;stroke-width:2.84619689px;stroke-linecap:butt;stroke-linejoin:miter;stroke-opacity:1"
       d="m 5624.5293,1144.9644 -1387.9494,10.911 -748.0086,371.2646 728.5716,-108.0112 1194.0345,26.6026 z"
       id="path857"
       inkscape:connector-curvature="0" />
    <path
       style="fill:#24ec5a;fill-opacity:1;stroke:none;stroke-width:2.84619689px;stroke-linecap:butt;stroke-linejoin:miter;stroke-opacity:1"
       d="M 4236.5799,1155.8754 3866.8638,921.29355 3882.8571,632.19034 5511.4287,431.59822 5327.5446,703.07807 4969.9506,959.48142 Z"
       id="path859"
       inkscape:connector-curvature="0" />
    <path
       style="fill:#00d83a;fill-opacity:1;stroke:none;stroke-width:2.84619689px;stroke-linecap:butt;stroke-linejoin:miter;stroke-opacity:1"
       d="m 4236.5799,1155.8754 733.3707,-196.39398 357.594,-256.40335 296.9847,441.88633 z"
       id="path861"
       inkscape:connector-curvature="0" />
    <path
       style="fill:#2bb650;fill-opacity:1;stroke:none;stroke-width:2.84619689px;stroke-linecap:butt;stroke-linejoin:miter;stroke-opacity:1"
       d="m 1894.2858,1091.2378 911.9181,15.539 L 3882.8571,632.19034 1955.9349,730.548 1611.4287,987.08421 Z"
       id="path863"
       inkscape:connector-curvature="0"
       sodipodi:nodetypes="cccccc" />
    <path
       style="fill:#00ca57;fill-opacity:1;stroke:none;stroke-width:2.84619689px;stroke-linecap:butt;stroke-linejoin:miter;stroke-opacity:1"
       d="M 1165.5162,824.50691 1969.7973,583.05958 3882.8571,632.19034 1955.9349,730.548 1611.4287,987.08421 Z"
       id="path865"
       inkscape:connector-curvature="0" />
    <path
       style="fill:#bcf1ed;fill-opacity:1;stroke:none;stroke-width:2.84619689px;stroke-linecap:butt;stroke-linejoin:miter;stroke-opacity:1"
       d="M 1085.8623,795.46541 1138.479,930.77477 1680,1527.14 3120,2090.341 3546.7374,2215.7039 3994.4853,2043.04 3420,1789.4527 3157.737,1592.3064 2551.6446,1491.377 1960.7796,1092.3708 1475.6385,731.4075 1165.5162,824.50691 Z"
       id="path867"
       inkscape:connector-curvature="0"
       sodipodi:nodetypes="ccccccccccccc" />
    <path
       style="fill:#e7fffd;fill-opacity:1;stroke:none;stroke-width:2.84619689px;stroke-linecap:butt;stroke-linejoin:miter;stroke-opacity:1"
       d="m 3120,2090.341 -116.8164,74.781 116.6118,218.5298 210.6774,26.9625 124.2489,-81.8309 130.3098,38.188 175.7664,-98.197 230.3148,-68.1923 90.9138,-95.4695 57.9735,-122.7827 -236.7705,-40.8788 -72.6129,29.2545 -138.4035,-61.0935 -110.2122,50.933 -118.1877,-24.5494 -60.6093,70.9199 -93.9441,-24.549 z"
       id="path869"
       inkscape:connector-curvature="0" />
    <path
       style="fill:none;fill-opacity:1;stroke:#d4f2f2;stroke-width:83.53028107;stroke-linecap:butt;stroke-linejoin:miter;stroke-miterlimit:4;stroke-dasharray:none;stroke-opacity:1"
       d="m 3120,2090.341 -177.4257,25.6823 60.6093,49.0987 116.6118,218.5298 210.6774,26.9625 124.2489,-81.8309 130.3098,38.188 175.7664,-98.197 230.3148,-68.1923 90.9138,-95.4695 57.9735,-122.7827 -309.3834,-11.6243 -138.4035,-61.0935 -110.2122,50.933 -118.1877,-24.5494 -60.6093,70.9199 -201.3411,36.7219 z"
       id="path871"
       inkscape:connector-curvature="0"
       sodipodi:nodetypes="cccccccccccccccccc" />
    <path
       style="fill:#ffffff;fill-opacity:1;stroke:none;stroke-width:2.84619689px;stroke-linecap:butt;stroke-linejoin:miter;stroke-opacity:1"
       d="m 1333.4013,1033.1291 124.2489,180.0278 109.0965,60.0092 -30.3048,-60.0092 -84.8526,-65.4647 z"
       id="path873"
       inkscape:connector-curvature="0" />
    <path
       style="fill:#ffffff;fill-opacity:1;stroke:none;stroke-width:2.84619689px;stroke-linecap:butt;stroke-linejoin:miter;stroke-opacity:1"
       d="m 1809.1833,1453.1939 278.802,65.4645 45.4569,-46.3707 -157.5837,-35.4598 z"
       id="path875"
       inkscape:connector-curvature="0"
       sodipodi:nodetypes="ccccc" />
    <path
       style="fill:#9ee9e3;fill-opacity:1;stroke:none;stroke-width:2.84619689px;stroke-linecap:butt;stroke-linejoin:miter;stroke-opacity:1"
       d="m 2430.4269,1540.4802 157.584,68.1923 -66.6702,-46.3708 z"
       id="path877"
       inkscape:connector-curvature="0" />
    <path
       style="fill:#96e1da;fill-opacity:1;stroke:none;stroke-width:2.84619689px;stroke-linecap:butt;stroke-linejoin:miter;stroke-opacity:1"
       d="m 2621.3457,1725.9632 143.4402,99.4408 168.6972,72.4038 -30.3048,-40.9151 -127.9893,-54.3118 -99.2949,-79.3453 z"
       id="path879"
       inkscape:connector-curvature="0"
       sodipodi:nodetypes="ccccccc" />
    <path
       style="fill:#c6e7e5;fill-opacity:1;stroke:none;stroke-width:2.84619689px;stroke-linecap:butt;stroke-linejoin:miter;stroke-opacity:1"
       d="m 1733.4219,1114.96 27.2739,79.103 154.5534,90.0139 -75.7614,-79.1031 -45.4569,-68.1923 -39.396,-32.7323 -69.7005,-21.8218 -154.5534,-73.6476 -9.0912,24.5493 39.396,10.9108 z"
       id="path881"
       inkscape:connector-curvature="0" />
    <path
       style="fill:#e1d99a;fill-opacity:1;stroke:none;stroke-width:2.84619689px;stroke-linecap:butt;stroke-linejoin:miter;stroke-opacity:1"
       d="m 6503.3622,937.65967 315.2091,-39.29905 317.1429,142.72918 544.2858,69.4357 v 385.7541 c 0,0 -813.2946,-18.1197 -813.2946,-18.1197 z"
       id="path883"
       inkscape:connector-curvature="0" />
    <path
       style="fill:#b8b2b2;fill-opacity:1;stroke:none;stroke-width:2.84619689px;stroke-linecap:butt;stroke-linejoin:miter;stroke-opacity:1"
       d="M 2142.8571,2815.5587 1538.5713,2584.1065 1710,2344.9388 l 390,30.8603 346.2858,303.2028 z"
       id="path885"
       inkscape:connector-curvature="0" />
    <path
       style="fill:#cacaca;fill-opacity:1;stroke:none;stroke-width:2.84619689px;stroke-linecap:butt;stroke-linejoin:miter;stroke-opacity:1"
       d="m 2244.4635,3144.2132 -401.6064,300.1249 -604.2858,-169.732 -33.5649,-351.1945 333.5649,-339.3051 604.2858,231.4522 z"
       id="path887"
       inkscape:connector-curvature="0" />
    <path
       style="fill:#a7a7a7;fill-opacity:1;stroke:none;stroke-width:2.84619689px;stroke-linecap:butt;stroke-linejoin:miter;stroke-opacity:1"
       d="m 1538.5713,2584.1065 -252.174,-141.4598 93.6027,-552.8978 390,-57.8632 424.2858,281.6004 -94.2858,262.313 -390,-30.8603 z"
       id="path889"
       inkscape:connector-curvature="0" />
    <path
       style="fill:#b8b8b8;fill-opacity:1;stroke:none;stroke-width:2.84619689px;stroke-linecap:butt;stroke-linejoin:miter;stroke-opacity:1"
       d="m 1238.5713,3274.6061 -97.7112,27.7087 -57.9705,342.424 134.2533,162.2082 252.8571,42.433 325.7142,-127.299 47.1429,-277.7429 z"
       id="path891"
       inkscape:connector-curvature="0" />
    <path
       style="fill:#929a99;fill-opacity:1;stroke:none;stroke-width:2.84619689px;stroke-linecap:butt;stroke-linejoin:miter;stroke-opacity:1"
       d="m 1795.7142,3722.081 432.8571,231.4525 514.2858,-165.8744 c 0,0 -17.1429,-486.0499 -17.1429,-486.0499 l -481.2507,-157.396 -401.6064,300.1249 z"
       id="path893"
       inkscape:connector-curvature="0" />
    <path
       style="fill:#aaadad;fill-opacity:1;stroke:none;stroke-width:2.84619689px;stroke-linecap:butt;stroke-linejoin:miter;stroke-opacity:1"
       d="M 1470,3849.38 1165.7142,4107.8352 1397.1429,4320 H 2250 l 158.5713,-208.3074 -180,-158.1591 -432.8571,-231.4525 z"
       id="path895"
       inkscape:connector-curvature="0" />
    <path
       style="fill:#a9a6a6;fill-opacity:1;stroke:none;stroke-width:2.84619689px;stroke-linecap:butt;stroke-linejoin:miter;stroke-opacity:1"
       d="m 2742.8571,3787.6591 398.5716,177.4471 608.5713,38.5753 244.2855,-162.0165 111.429,-339.4636 -581.8986,-406.0796 -798.1017,205.4874 z"
       id="path897"
       inkscape:connector-curvature="0" />
    <path
       style="fill:#929292;fill-opacity:1;stroke:none;stroke-width:2.84619689px;stroke-linecap:butt;stroke-linejoin:miter;stroke-opacity:1"
       d="m 3141.4287,3965.1062 81.4284,185.1621 L 3180,4320 h -930 l 158.5713,-208.3074 -180,-158.1591 514.2858,-165.8744 z"
       id="path899"
       inkscape:connector-curvature="0" />
    <path
       style="opacity:0.80699978;fill:#bdf5dd;fill-opacity:0;stroke:none;stroke-width:2.84619689px;stroke-linecap:butt;stroke-linejoin:miter;stroke-opacity:1"
       d="m 5202.8571,1990.0451 1182.8571,7.7149 745.7145,493.7652 -368.5716,779.2236 -1328.5713,38.5754 -660,-455.1898 L 4740,2360.3689 Z"
       id="path919"
       inkscape:connector-curvature="0" />
    <path
       style="fill:#daf2ef;fill-opacity:1;stroke:none;stroke-width:2.84619689px;stroke-linecap:butt;stroke-linejoin:miter;stroke-opacity:1"
       d="m 2446.2858,2679.0019 541.1826,-243.296 190.0095,-74.7448 143.9508,217.3589 z"
       id="path2455"
       inkscape:connector-curvature="0" />
    <path
       style="fill:#f0f6f1;fill-opacity:1;stroke:none;stroke-width:2.84619689px;stroke-linecap:butt;stroke-linejoin:miter;stroke-opacity:1"
       d="m 3321.4287,2578.32 145.7142,194.806 -488.5716,285.4578 -532.2855,-379.5819 z"
       id="path2457"
       inkscape:connector-curvature="0" />
    <path
       style="fill:#e7fff9;fill-opacity:1;stroke:none;stroke-width:2.84619689px;stroke-linecap:butt;stroke-linejoin:miter;stroke-opacity:1"
       d="m 2978.5713,3058.5838 545.2446,37.538 -798.1017,205.4874 -481.2507,-157.396 -101.6064,-328.6545 c 0,0 303.4287,-136.5568 303.4287,-136.5568 0,0 532.2855,379.5819 532.2855,379.5819 z"
       id="path2459"
       inkscape:connector-curvature="0" />
    <path
       style="fill:#f9fffa;fill-opacity:1;stroke:none;stroke-width:2.84619689px;stroke-linecap:butt;stroke-linejoin:miter;stroke-opacity:1"
       d="m 3523.8159,3096.1218 -56.673,-322.9958 -488.5716,285.4578 z"
       id="path2461"
       inkscape:connector-curvature="0" />
    <path
       style="fill:#e6fdfa;fill-opacity:1;stroke:none;stroke-width:2.84619689px;stroke-linecap:butt;stroke-linejoin:miter;stroke-opacity:1"
       d="m 2978.5713,3058.5838 -252.8571,243.0254 798.1017,-205.4874 z"
       id="path2463"
       inkscape:connector-curvature="0" />
    <path
       style="fill:#e1f7f4;fill-opacity:1;stroke:none;stroke-width:2.84619689px;stroke-linecap:butt;stroke-linejoin:miter;stroke-opacity:1"
       d="m 2244.4635,3144.2132 201.8223,-465.2113 -303.4287,136.5568 z"
       id="path2465"
       inkscape:connector-curvature="0" />
    <path
       style="fill:#b4f3f0;fill-opacity:1;stroke:none;stroke-width:2.84619689px;stroke-linecap:butt;stroke-linejoin:miter;stroke-opacity:1"
       d="m 3321.4287,2578.32 145.7142,194.806 523.9698,-572.5439 -813.6348,160.379 z"
       id="path2467"
       inkscape:connector-curvature="0"
       sodipodi:nodetypes="ccccc" />
    <path
       style="fill:#c4f7fb;fill-opacity:1;stroke:none;stroke-width:2.84619689px;stroke-linecap:butt;stroke-linejoin:miter;stroke-opacity:1"
       d="m 4627.6347,3341.8782 -417.9342,-1392.2806 -742.5576,823.5284 56.673,322.9958 z"
       id="path2469"
       inkscape:connector-curvature="0"
       sodipodi:nodetypes="ccccc" />
    <path
       style="fill:#a2f4f0;fill-opacity:1;stroke:none;stroke-width:2.84619689px;stroke-linecap:butt;stroke-linejoin:miter;stroke-opacity:1"
       d="m 4209.7005,1949.5976 220.8096,-525.7151 -213.3672,-4.7537 L 3488.5713,1527.14 3420,1789.4527 3797.1429,1820.3131 4140,1982.3299 Z"
       id="path2471"
       inkscape:connector-curvature="0" />
    <path
       style="fill:#d9f7fb;fill-opacity:1;stroke:none;stroke-width:2.84619689px;stroke-linecap:butt;stroke-linejoin:miter;stroke-opacity:1"
       d="M 4627.6347,3341.8782 4872.9759,4320 h -681.5472 l -197.1432,-478.335 111.429,-339.4636 z"
       id="path2473"
       inkscape:connector-curvature="0" />
    <path
       style="fill:#94fffb;fill-opacity:1;stroke:none;stroke-width:2.84619689px;stroke-linecap:butt;stroke-linejoin:miter;stroke-opacity:1"
       d="m 4430.5101,1423.8825 451.5573,495.7471 -672.3669,29.968 z"
       id="path2477"
       inkscape:connector-curvature="0" />
    <path
       style="fill:#8ef5f1;fill-opacity:1;stroke:none;stroke-width:2.84619689px;stroke-linecap:butt;stroke-linejoin:miter;stroke-opacity:1"
       d="M 4882.0674,1919.6296 4397.2146,2574.271 4209.7005,1949.5976 Z"
       id="path2479"
       inkscape:connector-curvature="0" />
    <path
       style="fill:#87f4ef;fill-opacity:1;stroke:none;stroke-width:2.84619689px;stroke-linecap:butt;stroke-linejoin:miter;stroke-opacity:1"
       d="m 4882.0674,1919.6296 529.11,-473.8982 -980.6673,-21.8489 z"
       id="path2481"
       inkscape:connector-curvature="0" />
    <path
       style="fill:#d2fdf9;fill-opacity:1;stroke:none;stroke-width:2.84619689px;stroke-linecap:butt;stroke-linejoin:miter;stroke-opacity:1"
       d="m 4882.0674,1919.6296 536.391,651.9187 -1021.2438,2.7227 z"
       id="path2483"
       inkscape:connector-curvature="0" />
    <path
       style="fill:#e5ffff;fill-opacity:1;stroke:none;stroke-width:2.84619689px;stroke-linecap:butt;stroke-linejoin:miter;stroke-opacity:1"
       d="m 6162.8571,2125.0591 -744.3987,446.4892 890.1129,197.7201 z"
       id="path2485"
       inkscape:connector-curvature="0" />
    <path
       style="fill:#f0fffc;fill-opacity:1;stroke:none;stroke-width:2.84619689px;stroke-linecap:butt;stroke-linejoin:miter;stroke-opacity:1"
       d="m 5418.4584,2571.5483 157.3851,733.6658 732.7278,-535.9457 z"
       id="path2487"
       inkscape:connector-curvature="0" />
    <path
       style="fill:#effcfb;fill-opacity:1;stroke:none;stroke-width:2.84619689px;stroke-linecap:butt;stroke-linejoin:miter;stroke-opacity:1"
       d="m 6162.8571,2125.0591 938.5716,192.8769 -792.8574,451.3324 z"
       id="path2489"
       inkscape:connector-curvature="0" />
    <path
       style="fill:#e7fdf9;fill-opacity:1;stroke:none;stroke-width:2.84619689px;stroke-linecap:butt;stroke-linejoin:miter;stroke-opacity:1"
       d="m 4882.0674,1919.6296 1280.7897,205.4295 -744.3987,446.4892 z"
       id="path2491"
       inkscape:connector-curvature="0" />
    <path
       style="fill:#d8fdf9;fill-opacity:1;stroke:none;stroke-width:2.84619689px;stroke-linecap:butt;stroke-linejoin:miter;stroke-opacity:1"
       d="m 6162.8571,2125.0591 703.8483,-646.8992 234.7233,839.7761 z"
       id="path2493"
       inkscape:connector-curvature="0" />
    <path
       style="fill:#e4fdf9;fill-opacity:1;stroke:none;stroke-width:2.84619689px;stroke-linecap:butt;stroke-linejoin:miter;stroke-opacity:1"
       d="m 5418.4584,2571.5483 -790.8237,770.3299 948.2088,-36.6641 z"
       id="path2495"
       inkscape:connector-curvature="0" />
    <path
       style="fill:#e1fdf9;fill-opacity:1;stroke:none;stroke-width:2.84619689px;stroke-linecap:butt;stroke-linejoin:miter;stroke-opacity:1"
       d="m 5575.8435,3305.2141 857.8182,316.4962 -125.0904,-852.4419 z"
       id="path2497"
       inkscape:connector-curvature="0" />
    <path
       style="fill:#ddfdf9;fill-opacity:1;stroke:none;stroke-width:2.84619689px;stroke-linecap:butt;stroke-linejoin:miter;stroke-opacity:1"
       d="m 6308.5713,2769.2684 885.735,552.3958 -92.8776,-1003.7282 z"
       id="path2499"
       inkscape:connector-curvature="0" />
    <path
       style="fill:#c3fdf9;fill-opacity:1;stroke:none;stroke-width:2.84619689px;stroke-linecap:butt;stroke-linejoin:miter;stroke-opacity:1"
       d="m 6433.6617,3621.7103 760.6446,-300.0461 -885.735,-552.3958 z"
       id="path2501"
       inkscape:connector-curvature="0" />
    <path
       style="fill:#a4fdf9;fill-opacity:1;stroke:none;stroke-width:2.84619689px;stroke-linecap:butt;stroke-linejoin:miter;stroke-opacity:1"
       d="M 6433.6617,3621.7103 7680,4320 7194.3063,3321.6642 Z"
       id="path2503"
       inkscape:connector-curvature="0" />
    <path
       style="fill:#90fdf9;fill-opacity:1;stroke:none;stroke-width:2.84619689px;stroke-linecap:butt;stroke-linejoin:miter;stroke-opacity:1"
       d="M 6433.6617,3621.7103 5954.8494,4320 H 7680 Z"
       id="path2505"
       inkscape:connector-curvature="0" />
    <path
       style="fill:#85fdf9;fill-opacity:1;stroke:none;stroke-width:2.84619689px;stroke-linecap:butt;stroke-linejoin:miter;stroke-opacity:1"
       d="M 7194.3063,3321.6642 7680,3316.2088 V 4320 Z"
       id="path2507"
       inkscape:connector-curvature="0" />
    <path
       style="fill:#aefdf9;fill-opacity:1;stroke:none;stroke-width:2.84619689px;stroke-linecap:butt;stroke-linejoin:miter;stroke-opacity:1"
       d="M 6866.7054,1478.1599 7101.4287,2317.936 7680,1496.2796 Z"
       id="path2509"
       inkscape:connector-curvature="0" />
    <path
       style="fill:#9ef5f9;fill-opacity:1;stroke:none;stroke-width:2.84619689px;stroke-linecap:butt;stroke-linejoin:miter;stroke-opacity:1"
       d="M 7101.4287,2317.936 7680,3316.2088 V 1496.2796 Z"
       id="path2511"
       inkscape:connector-curvature="0" />
    <path
       style="fill:#beecf9;fill-opacity:1;stroke:none;stroke-width:2.84619689px;stroke-linecap:butt;stroke-linejoin:miter;stroke-opacity:1"
       d="M 5575.8435,3305.2141 5954.8494,4320 6433.6617,3621.7103 Z"
       id="path2513"
       inkscape:connector-curvature="0" />
    <path
       style="fill:#d0f9f9;fill-opacity:1;stroke:none;stroke-width:2.84619689px;stroke-linecap:butt;stroke-linejoin:miter;stroke-opacity:1"
       d="M 5575.8435,3305.2141 4872.9759,4320 h 1081.8735 z"
       id="path2515"
       inkscape:connector-curvature="0" />
    <path
       style="fill:#edf7fb;fill-opacity:1;stroke:none;stroke-width:2.84619689px;stroke-linecap:butt;stroke-linejoin:miter;stroke-opacity:1"
       d="m 3523.8159,3096.1218 873.3987,-521.8508 230.4201,767.6072 z"
       id="path2517"
       inkscape:connector-curvature="0" />
    <path
       style="fill:#eaebf8;fill-opacity:1;stroke:none;stroke-width:2.84619689px;stroke-linecap:butt;stroke-linejoin:miter;stroke-opacity:1"
       d="m 3467.1429,2773.126 930.0717,-198.855 -873.3987,521.8508 z"
       id="path2519"
       inkscape:connector-curvature="0" />
    <path
       style="fill:#cbf7f7;fill-opacity:1;stroke:none;stroke-width:2.84619689px;stroke-linecap:butt;stroke-linejoin:miter;stroke-opacity:1"
       d="M 4627.6347,3341.8782 4191.4287,4320 3994.2855,3841.665 Z"
       id="path2521"
       inkscape:connector-curvature="0" />
    <path
       style="fill:#a6dad6;fill-opacity:1;stroke:none;stroke-width:2.84619689px;stroke-linecap:butt;stroke-linejoin:miter;stroke-opacity:1"
       d="m 1363.3137,896.62299 86.4486,31.51873 -12.1407,38.24897 -69.8661,-8.31828 z"
       id="path2523"
       inkscape:connector-curvature="0" />
    <path
       style="fill:url(#linearGradient918);fill-opacity:1;stroke:none;stroke-width:2.84619689px;stroke-linecap:butt;stroke-linejoin:miter;stroke-opacity:1"
       d="M 0,539.60938 V -0.44641917 H 7680 V 763.34667 L 6780,539.60938 6188.5713,269.58148 c 0,0 -677.1426,162.01674 -677.1426,162.01674 L 3882.8571,632.19034 1969.7973,583.05958 1165.5162,824.50691 934.2858,740.2015 437.1429,308.15686 Z"
       id="path2525"
       inkscape:connector-curvature="0" />
  </g>
</svg>
